<svg xmlns="http://www.w3.org/2000/svg" viewBox="0 0 512 512"><rect width="512" height="512" rx="112" fill="#071d35"/><g fill="none" stroke="#fff" stroke-width="18" stroke-linecap="round" stroke-linejoin="round"><circle cx="145" cy="337" r="39"/><circle cx="357" cy="337" r="39"/><path d="M92 326V207c0-23 19-42 42-42h144c27 0 50 18 58 43l18 57h43c18 0 32 14 32 32v29h-33M184 326h134M120 213h156M278 166v99M92 266h186"/><path d="M334 208h42l42 57h-64z"/></g><path d="M116 119h280" stroke="#32d583" stroke-width="24" stroke-linecap="round"/><circle cx="256" cy="119" r="19" fill="#32d583"/></svg>